<svg width="33" height="33" viewBox="0 0 33 33" fill="none" xmlns="http://www.w3.org/2000/svg">
<path d="M16.5407 0.822266C12.2973 0.822266 11.7646 0.840859 10.0981 0.916641C8.43462 0.992891 7.29915 1.25617 6.30571 1.64258C5.2779 2.04164 4.40618 2.57555 3.53774 3.4443C2.66853 4.31289 2.13462 5.18461 1.73431 6.21195C1.34681 7.2057 1.08321 8.34164 1.00837 10.0043C0.933838 11.671 0.914307 12.2038 0.914307 16.4474C0.914307 20.691 0.933057 21.222 1.00868 22.8885C1.08524 24.552 1.34853 25.6874 1.73462 26.6809C2.13399 27.7087 2.6679 28.5804 3.53665 29.4488C4.40493 30.318 5.27665 30.8532 6.30368 31.2523C7.2979 31.6387 8.43353 31.902 10.0967 31.9782C11.7634 32.054 12.2956 32.0726 16.5388 32.0726C20.7827 32.0726 21.3137 32.054 22.9802 31.9782C24.6437 31.902 25.7804 31.6387 26.7746 31.2523C27.802 30.8532 28.6724 30.318 29.5406 29.4488C30.4098 28.5804 30.9435 27.7087 31.344 26.6813C31.7281 25.6874 31.9918 24.5516 32.0699 22.8888C32.1448 21.2223 32.1643 20.691 32.1643 16.4474C32.1643 12.2038 32.1448 11.6713 32.0699 10.0046C31.9918 8.34117 31.7281 7.20586 31.344 6.21242C30.9435 5.18461 30.4098 4.31289 29.5406 3.4443C28.6715 2.57523 27.8023 2.04133 26.7737 1.64273C25.7776 1.25617 24.6415 0.992734 22.9781 0.916641C21.3113 0.840859 20.7807 0.822266 16.5359 0.822266H16.5407ZM15.139 3.63805C15.5551 3.63742 16.0193 3.63805 16.5407 3.63805C20.7127 3.63805 21.2071 3.65305 22.8546 3.72789C24.3781 3.79758 25.2049 4.05211 25.7557 4.26602C26.4849 4.54914 27.0048 4.88773 27.5513 5.43477C28.0982 5.98164 28.4367 6.50242 28.7206 7.23164C28.9345 7.78164 29.1893 8.60852 29.2587 10.132C29.3335 11.7791 29.3498 12.2738 29.3498 16.4438C29.3498 20.6138 29.3335 21.1087 29.2587 22.7557C29.189 24.2791 28.9345 25.106 28.7206 25.6562C28.4374 26.3854 28.0982 26.9046 27.5513 27.4512C27.0045 27.998 26.4852 28.3365 25.7557 28.6198C25.2056 28.8346 24.3781 29.0885 22.8546 29.1582C21.2074 29.233 20.7127 29.2493 16.5407 29.2493C12.3685 29.2493 11.874 29.233 10.227 29.1582C8.70353 29.0879 7.87665 28.8334 7.3254 28.6195C6.59634 28.3362 6.0754 27.9977 5.52853 27.4509C4.98165 26.904 4.64321 26.3845 4.35931 25.6549C4.1454 25.1048 3.89056 24.2779 3.82118 22.7545C3.74634 21.1073 3.73134 20.6126 3.73134 16.4399C3.73134 12.2673 3.74634 11.7752 3.82118 10.128C3.89087 8.60461 4.1454 7.77773 4.35931 7.22695C4.64259 6.49773 4.98165 5.97695 5.52868 5.43008C6.07571 4.8832 6.59634 4.54461 7.32556 4.26086C7.87634 4.04602 8.70353 3.79211 10.227 3.72211C11.6684 3.65695 12.227 3.63742 15.139 3.63414V3.63805ZM24.8813 6.23242C23.8462 6.23242 23.0063 7.07148 23.0063 8.1068C23.0063 9.14195 23.8462 9.9818 24.8813 9.9818C25.9165 9.9818 26.7563 9.14195 26.7563 8.1068C26.7563 7.07164 25.9165 6.2318 24.8813 6.2318V6.23242ZM16.5407 8.4232C12.1095 8.4232 8.51665 12.016 8.51665 16.4474C8.51665 20.8788 12.1095 24.4699 16.5407 24.4699C20.9721 24.4699 24.5637 20.8788 24.5637 16.4474C24.5637 12.0162 20.9718 8.4232 16.5404 8.4232H16.5407ZM16.5407 11.239C19.4171 11.239 21.7492 13.5707 21.7492 16.4474C21.7492 19.3238 19.4171 21.6559 16.5407 21.6559C13.6643 21.6559 11.3324 19.3238 11.3324 16.4474C11.3324 13.5707 13.6642 11.239 16.5407 11.239Z" fill="#0C0C0C"/>
</svg>
