<svg width="82" height="24" viewBox="0 0 82 24" fill="none" xmlns="http://www.w3.org/2000/svg">
<path d="M34.3019 0.242424C34.4012 0.265699 34.4279 0.340679 34.4688 0.397528C37.3545 4.40694 40.2388 8.41702 43.1233 12.4269C43.2665 12.6259 43.2665 12.6254 43.4142 12.4215C46.3061 8.42575 49.1978 4.42999 52.0915 0.435799C52.1443 0.36306 52.1844 0.221609 52.2802 0.251823C52.3773 0.282711 52.3308 0.421251 52.3312 0.512344C52.3339 1.36508 52.3301 2.21781 52.335 3.07054C52.3362 3.24086 52.2896 3.38053 52.1898 3.51907C49.265 7.57235 46.3431 11.6281 43.4207 15.6832C43.269 15.8935 43.2643 15.8949 43.1036 15.6744C40.8307 12.5556 38.5586 9.4365 36.286 6.31719C36.2432 6.25833 36.1998 6.19992 36.1459 6.12606C36.0763 6.21402 36.1038 6.30309 36.1038 6.3821C36.102 9.66098 36.1024 12.9399 36.1022 16.2185C36.1022 16.2995 36.1004 16.3803 36.0998 16.4611C36.0991 16.578 36.0463 16.6337 35.9241 16.6328C35.4317 16.6299 34.9391 16.6301 34.4464 16.6326C34.3256 16.633 34.2703 16.5827 34.2759 16.4616C34.2788 16.3956 34.2752 16.3293 34.2752 16.2633C34.2752 11.0216 34.2752 5.78004 34.2761 0.538305C34.2761 0.443857 34.2589 0.347168 34.3019 0.242424Z" fill="#F2F1F1"/>
<path d="M25.8474 10.647C26.3577 11.1891 26.84 11.7034 27.3243 12.2158C28.6522 13.6202 29.9814 15.0237 31.3091 16.4282C31.353 16.4745 31.436 16.5188 31.413 16.5839C31.3825 16.6701 31.2856 16.6305 31.218 16.6309C30.5493 16.6336 29.8805 16.6292 29.2115 16.6352C29.066 16.6365 28.9638 16.5871 28.8657 16.4834C26.5313 14.0179 24.1943 11.5548 21.8597 9.08952C21.8082 9.03513 21.7021 8.98701 21.7444 8.89883C21.7836 8.81758 21.8901 8.85115 21.9678 8.85093C23.0336 8.84869 24.0994 8.86078 25.165 8.84534C26.8386 8.82139 28.1719 7.73231 28.5537 6.0998C29.0005 4.1891 27.6591 2.19469 25.7278 1.88963C25.4716 1.84912 25.2162 1.84375 24.9593 1.84352C23.0924 1.84196 17.4185 1.83927 15.5515 1.84711C15.3328 1.84822 15.2023 1.78399 15.098 1.58703C14.8534 1.12642 14.5886 0.676332 14.3252 0.226019C14.2309 0.0653191 14.2569 0.012722 14.448 0.0131702C16.859 0.0174217 23.0781 -0.0304737 25.4875 0.0346565C27.0866 0.0778522 28.3908 0.839716 29.3595 2.11165C31.0282 4.30235 30.7948 7.26923 28.8149 9.18777C28.0468 9.93218 27.1274 10.4038 26.0683 10.5906C26.0047 10.6021 25.9429 10.6226 25.8474 10.647Z" fill="#F2F1F1"/>
<path d="M61.3417 15.2621C61.3417 14.1596 61.3437 13.0573 61.3392 11.9553C61.3386 11.7941 61.3735 11.6585 61.4688 11.5251C63.6398 8.48839 65.8077 3.2104 67.9738 0.170326C68.0552 0.0559578 68.1479 0.0114174 68.2869 0.0127602C68.8674 0.0185795 69.448 0.014328 70.0286 0.0163422C70.0993 0.0165672 70.1965 -0.0156631 70.2341 0.0512581C70.2804 0.133173 70.1904 0.197184 70.1459 0.259628C68.6369 2.37826 64.0648 11.0323 63.2842 12.118C63.1913 12.2474 63.17 12.3803 63.1703 12.5309C63.1723 14.5298 63.1716 17.4244 63.1714 19.4235C63.1714 19.7673 63.1707 19.7677 62.8368 19.768C62.4252 19.7682 62.0131 19.759 61.602 19.7715C61.4008 19.778 61.3365 19.7118 61.3377 19.509C61.3462 18.392 61.3417 16.3792 61.3417 15.2621Z" fill="#F2F1F1"/>
<path d="M18.4892 10.4794C18.4892 8.5891 18.4941 6.69854 18.4845 4.8082C18.483 4.46039 18.5456 4.33439 18.7703 4.34603C19.2034 4.36818 19.6378 4.36013 20.0711 4.34938C20.252 4.34513 20.318 4.45972 20.3178 4.74128C20.3147 8.58015 20.3144 12.4188 20.3182 16.2574C20.3185 16.5457 20.2504 16.641 20.0707 16.6352C19.6224 16.6202 19.1739 16.6198 18.7256 16.6355C18.5423 16.6419 18.4852 16.5399 18.4861 16.255C18.4924 14.3297 18.4892 12.4047 18.4892 10.4794Z" fill="#F2F1F1"/>
<path d="M7.42945 13.3698C5.90236 13.3698 4.37505 13.3649 2.84774 13.3745C2.56686 13.376 2.46502 13.3134 2.4742 13.0887C2.4921 12.6556 2.48561 12.2214 2.47711 11.7879C2.47353 11.6072 2.56618 11.541 2.79358 11.5412C5.89498 11.5444 8.99615 11.5446 12.0973 11.5408C12.3303 11.5405 12.4075 11.6086 12.4028 11.7883C12.3907 12.2366 12.3901 12.6851 12.4031 13.1334C12.4082 13.3167 12.3258 13.3738 12.0955 13.3729C10.54 13.3669 8.98473 13.3698 7.42945 13.3698Z" fill="#F2F1F1"/>
<path d="M5.25666 9.70766C6.05657 7.97108 6.85649 6.23428 7.65662 4.4977C8.45676 6.23406 9.25645 7.97086 10.0564 9.70743C10.7332 9.70721 11.41 9.70788 12.0868 9.70743C10.6437 6.57649 9.20094 3.44533 7.75756 0.314389C7.73182 0.258659 7.73138 0.164433 7.64879 0.169581C7.57448 0.174058 7.56531 0.263584 7.53867 0.320881C7.26316 0.913541 6.99212 1.50866 6.71414 2.1002C6.69512 2.14049 6.68504 2.17899 6.67878 2.21704C5.5277 4.71391 4.37707 7.21078 3.22644 9.70788C3.90303 9.70833 4.58007 9.70743 5.25666 9.70766Z" fill="#F2F1F1"/>
<path d="M15.1458 16.344C14.4074 14.7421 13.6688 13.1405 12.9309 11.5382C12.2534 11.5366 11.5759 11.536 10.8984 11.5357C10.9519 11.6515 11.0052 11.7674 11.0585 11.8829C11.7559 13.3974 12.4548 14.9115 13.1482 16.4277C13.2145 16.5725 13.2964 16.6439 13.4638 16.6356C13.7205 16.6228 13.9779 16.6322 14.2353 16.6322C14.4779 16.6322 14.7203 16.6329 14.9627 16.6322C15.2653 16.6313 15.2729 16.6201 15.1458 16.344Z" fill="#F2F1F1"/>
<path d="M2.38185 11.54C1.63856 13.153 0.894828 14.7661 0.15154 16.3791C0.0241898 16.6553 0.0317994 16.6665 0.33462 16.6672C0.577235 16.6678 0.819626 16.6674 1.06224 16.6674C1.31918 16.6672 1.57679 16.6578 1.83351 16.6707C2.00092 16.679 2.08261 16.6078 2.14908 16.4628C2.84268 14.9467 3.54121 13.4326 4.23862 11.918C4.29748 11.7907 4.35589 11.6633 4.41476 11.5358C3.73727 11.536 3.05934 11.5376 2.38185 11.54Z" fill="#F2F1F1"/>
<path d="M52.2768 7.55004C52.1105 7.72439 52.0391 7.903 51.9466 8.06683C51.4831 8.88532 51.0245 9.70694 50.5614 10.5257C50.4979 10.6382 50.467 10.7517 50.4674 10.8815C50.4706 11.7269 50.4744 22.6501 50.4652 23.4955C50.463 23.7025 50.5218 23.7824 50.7389 23.7755C51.187 23.7614 51.6358 23.7665 52.0843 23.7735C52.2454 23.7759 52.3036 23.7177 52.3032 23.5559C52.2998 21.6369 52.3012 9.64047 52.3003 7.72171C52.3003 7.67963 52.2893 7.63778 52.2768 7.55004Z" fill="#F2F1F1"/>
<path d="M60.2073 5.76541C59.9967 5.38425 58.5002 2.65685 57.0445 0.000172615H54.9577C56.9732 3.67722 59.5298 8.3442 60.1182 9.41694C60.1383 9.45387 60.1681 9.48543 60.2211 9.55615C60.2834 9.32339 60.2599 9.13247 60.2626 8.94447C60.2758 8.00378 60.2831 7.06308 60.2959 6.12239C60.2975 5.99325 60.2699 5.87888 60.2073 5.76541Z" fill="#F2F1F1"/>
<path d="M22.73 24C21.7284 22.9308 20.7349 21.8695 19.7317 20.7983V23.7818H19.2915V19.6329C20.2906 20.7001 21.2841 21.761 22.2897 22.8348V22.7614C22.2897 21.9973 22.2893 21.2332 22.2911 20.4691C22.2911 20.4328 22.3023 20.3932 22.3199 20.3614C22.4433 20.1392 22.5697 19.9187 22.6953 19.6974C22.704 19.6819 22.7132 19.6665 22.73 19.637V24Z" fill="#F2F1F1"/>
<path d="M29.8719 21.9504H27.2989V23.3439H27.3714C28.1006 23.3439 28.83 23.3444 29.5592 23.343C29.6026 23.343 29.6273 23.3547 29.6488 23.3941C29.7184 23.5225 29.7929 23.6483 29.869 23.7812H26.8578V19.6546C26.875 19.6537 26.8927 19.6521 26.9104 19.6521C27.7956 19.6519 28.6805 19.6523 29.5655 19.6512C29.606 19.651 29.6268 19.6633 29.6458 19.6982C29.717 19.828 29.7918 19.9554 29.8694 20.0919H27.3005V21.5077H27.3717C28.1009 21.5077 28.8303 21.5082 29.5595 21.5071C29.6031 21.5068 29.6275 21.5189 29.649 21.5583C29.7186 21.6866 29.7929 21.8126 29.8719 21.9504Z" fill="#F2F1F1"/>
<path d="M34.1637 23.344H34.2365C34.843 23.344 35.4493 23.344 36.0559 23.3442C36.2248 23.3442 36.3813 23.3048 36.5196 23.2027C36.7405 23.04 36.8448 22.7439 36.7709 22.48C36.7213 22.301 36.593 22.1953 36.4305 22.1244C36.2423 22.042 36.0415 22.0125 35.8405 21.9829C35.5189 21.9357 35.1962 21.8932 34.8757 21.8379C34.708 21.809 34.5496 21.7437 34.4037 21.6521C34.1646 21.5024 34.0339 21.2829 33.9941 21.0076C33.9515 20.7128 33.9956 20.4333 34.1601 20.1815C34.3788 19.8475 34.6924 19.6629 35.0905 19.6553C35.6673 19.6443 36.2445 19.6521 36.8217 19.6533C36.8401 19.6533 36.8676 19.6618 36.8757 19.6752C36.956 19.8102 37.0328 19.9471 37.117 20.0942H37.0473C36.4189 20.0942 35.7906 20.0944 35.1622 20.0939C34.9639 20.0939 34.7855 20.1492 34.642 20.2898C34.4468 20.4816 34.3831 20.7146 34.4475 20.9789C34.4923 21.1631 34.6268 21.2708 34.7926 21.3437C34.9614 21.4183 35.1413 21.4507 35.3226 21.4771C35.6534 21.5255 35.9856 21.5673 36.3153 21.6226C36.4979 21.6533 36.6707 21.7202 36.8285 21.8211C37.0541 21.9657 37.1805 22.1741 37.2206 22.4348C37.2658 22.7285 37.2248 23.0082 37.0594 23.2611C36.8667 23.555 36.593 23.724 36.2461 23.7741C36.1812 23.7833 36.1147 23.7855 36.0491 23.7855C35.5232 23.7864 34.9977 23.7853 34.4717 23.7871C34.4289 23.7871 34.4068 23.7741 34.3866 23.7376C34.3159 23.6083 34.2416 23.4807 34.1637 23.344Z" fill="#F2F1F1"/>
<path d="M41.5319 23.3442H41.6064C42.2127 23.3442 42.8192 23.3442 43.4255 23.3444C43.5948 23.3444 43.751 23.3043 43.8891 23.2023C44.1093 23.0398 44.2134 22.7421 44.1391 22.4789C44.0887 22.3001 43.9605 22.1949 43.7975 22.1239C43.6093 22.042 43.4088 22.0111 43.2076 21.9834C42.8707 21.9368 42.5303 21.9156 42.1997 21.8287C42.0164 21.7806 41.8418 21.7121 41.6901 21.5948C41.4972 21.4456 41.3967 21.2432 41.3622 21.0062C41.3197 20.7117 41.3644 20.4319 41.5292 20.1806C41.7469 19.8486 42.0589 19.6636 42.4546 19.6557C43.0334 19.6441 43.6124 19.6524 44.1914 19.6533C44.2087 19.6533 44.2346 19.6597 44.2418 19.6721C44.3228 19.8086 44.4007 19.9467 44.4853 20.0944H44.4144C43.7859 20.0944 43.1576 20.0946 42.5292 20.0944C42.3329 20.0942 42.1563 20.1488 42.0133 20.2875C41.8157 20.4796 41.751 20.7141 41.8163 20.9803C41.8615 21.1647 41.9963 21.2717 42.1621 21.3444C42.3311 21.4187 42.511 21.4512 42.6923 21.4773C43.0231 21.5257 43.3553 21.5675 43.6849 21.623C43.8676 21.6537 44.0404 21.7211 44.1982 21.8222C44.4235 21.9671 44.5491 22.1756 44.5889 22.4364C44.6341 22.7303 44.5925 23.01 44.4269 23.2625C44.2353 23.5546 43.9629 23.7227 43.6185 23.7739C43.5536 23.7835 43.4871 23.7855 43.4215 23.7858C42.894 23.7867 42.3665 23.7858 41.8387 23.7871C41.7993 23.7871 41.7767 23.7775 41.757 23.7412C41.6861 23.6114 41.6113 23.4838 41.5319 23.3442Z" fill="#F2F1F1"/>
<path d="M0.442929 21.5081H0.516787C1.2462 21.5081 1.97539 21.5083 2.70457 21.5072C2.74576 21.5072 2.7697 21.5173 2.79052 21.5555C2.86102 21.6853 2.936 21.8125 3.01321 21.9479H0.441138V23.7827H0V19.6522H0.0613251C0.942482 19.6522 1.82386 19.6527 2.70524 19.6511C2.74755 19.6511 2.76993 19.6634 2.79007 19.7003C2.86102 19.8297 2.93555 19.9571 3.01344 20.094H0.442929V21.5081Z" fill="#F2F1F1"/>
<path d="M13.2064 20.0942H13.1314C12.7485 20.0942 12.3655 20.0935 11.9826 20.0951C11.9423 20.0953 11.9206 20.0823 11.9013 20.0474C11.8304 19.9178 11.7558 19.7902 11.6791 19.6559H15.1695V20.0922H13.6493V23.7817H13.2064V20.0942Z" fill="#F2F1F1"/>
<path d="M7.12732 19.6542H7.56107V23.7822H7.12732V19.6542Z" fill="#F2F1F1"/>
<path d="M74.6801 23.7759H73.5648V-0.000148773H74.6801V23.7759Z" fill="#F2F1F1"/>
<path d="M20.3182 16.6362H18.4847V4.34524H20.3182V16.6362Z" fill="#F2F1F1"/>
<path d="M36.1064 16.6362H34.2726V4.34524H36.1064V16.6362Z" fill="#F2F1F1"/>
<path d="M52.3009 23.7866H50.4674V11.4956H52.3009V23.7866Z" fill="#F2F1F1"/>
<path d="M63.1714 19.8408H61.3379V14.7815H63.1714V19.8408Z" fill="#F2F1F1"/>
<path d="M63.1714 23.7866H61.3379V21.7119H63.1714V23.7866Z" fill="#F2F1F1"/>
<path d="M79.0446 14.0276H77.5563C77.4818 14.0276 77.4815 14.0278 77.4815 14.1006C77.4813 14.3432 77.4815 14.586 77.4813 14.8288C77.4813 14.9175 77.484 15.0059 77.4992 15.0934C77.5614 15.4557 77.7273 15.7613 78.0021 16.0059C78.3459 16.3118 78.7512 16.4361 79.2053 16.3917C79.5525 16.3575 79.8558 16.216 80.1111 15.9754C80.4178 15.6863 80.5892 15.3324 80.6035 14.9101C80.6127 14.6411 80.6062 14.3714 80.6064 14.1021C80.6067 14.028 80.6062 14.0276 80.533 14.0276H79.0446ZM79.0482 13.5871H80.973C81.0467 13.5871 81.0469 13.5873 81.0469 13.6592C81.0469 14.0616 81.0491 14.464 81.0464 14.8664C81.0433 15.3546 80.8748 15.7823 80.5552 16.1482C80.2255 16.5258 79.8096 16.7599 79.3117 16.8212C78.5715 16.9126 77.9531 16.6675 77.4779 16.0905C77.1792 15.7275 77.0384 15.3029 77.0406 14.8315C77.0422 14.4468 77.0408 14.0621 77.0411 13.6778C77.0411 13.5784 77.0328 13.5871 77.1339 13.5871C77.7718 13.5869 78.4101 13.5871 79.0482 13.5871Z" fill="#F2F1F1"/>
<path d="M79.0295 23.3354C79.889 23.3365 80.5732 22.6505 80.5741 21.7872C80.5752 20.9289 79.8903 20.2472 79.0322 20.2416C78.1842 20.2358 77.4801 20.9336 77.4794 21.7848C77.4787 22.6357 78.173 23.3434 79.0295 23.3354ZM79.0269 23.7763C77.9398 23.783 77.0374 22.8841 77.0389 21.7825C77.0407 20.6888 77.9463 19.7933 79.0445 19.8C80.1287 19.8065 81.0231 20.6995 81.0168 21.7975C81.0108 22.8897 80.1195 23.787 79.0269 23.7763Z" fill="#F2F1F1"/>
<path d="M80.6054 2.4283C80.6054 2.11809 80.6088 1.80811 80.6043 1.4979C80.6005 1.20112 80.3857 0.938365 80.0958 0.87413C79.9192 0.834738 79.7456 0.842796 79.5938 0.958956C79.481 1.04535 79.4215 1.168 79.3769 1.29871C79.3105 1.49253 79.2854 1.69463 79.2599 1.89674C79.2216 2.20202 79.1972 2.50977 79.1113 2.80722C79.0643 2.97038 78.9985 3.12391 78.8915 3.25798C78.7368 3.45091 78.5291 3.54177 78.2892 3.56774C78.0177 3.59706 77.7628 3.5467 77.5343 3.39249C77.2648 3.2103 77.1072 2.95471 77.0526 2.63443C77.0414 2.56952 77.0405 2.50417 77.0408 2.43859C77.041 1.92651 77.0414 1.41442 77.0399 0.902331C77.0396 0.853315 77.0544 0.825562 77.0978 0.802285C77.2041 0.745437 77.3075 0.683216 77.4118 0.623458C77.4747 0.5872 77.4812 0.590781 77.4812 0.664416C77.4814 1.20314 77.4812 1.74186 77.4814 2.28058C77.4814 2.36026 77.4779 2.44038 77.4841 2.51984C77.5164 2.9509 77.919 3.22351 78.3257 3.10601C78.4888 3.05901 78.5819 2.93501 78.6468 2.7873C78.7294 2.5984 78.7583 2.39652 78.7854 2.19464C78.829 1.87212 78.8503 1.54624 78.9353 1.23022C78.9837 1.05094 79.0515 0.880397 79.1695 0.734022C79.3322 0.532141 79.5511 0.43993 79.8024 0.417996C80.1054 0.391362 80.385 0.459402 80.6247 0.652106C80.8937 0.868535 81.0421 1.15166 81.0455 1.49835C81.0508 2.0496 81.0466 2.60063 81.0479 3.15167C81.0482 3.1962 81.0349 3.22239 80.9949 3.24388C80.8857 3.30252 80.7789 3.36608 80.6715 3.42763C80.614 3.46031 80.6068 3.45672 80.6066 3.39048C80.6063 3.06975 80.6066 2.74902 80.6066 2.4283H80.6054Z" fill="#F2F1F1"/>
<path d="M81.05 8.84815C80.9417 8.9097 80.8405 8.96744 80.7393 9.02496C80.6115 9.0977 80.4831 9.16932 80.3559 9.2434C80.3147 9.26735 80.2724 9.27742 80.2248 9.2772C79.7552 9.2763 79.2857 9.27787 78.8161 9.27608C78.6019 9.27519 78.3951 9.30786 78.2024 9.40231C77.8235 9.58853 77.6039 9.89918 77.5289 10.309C77.4524 10.7271 77.5341 11.1134 77.8071 11.4471C77.9931 11.6743 78.2382 11.8041 78.5256 11.8571C78.6305 11.8766 78.7364 11.8806 78.8429 11.8804C79.5518 11.8802 80.2606 11.8802 80.9694 11.8804C81.0576 11.8804 81.0576 11.8804 81.0576 11.9666C81.0576 12.0621 81.0547 12.1579 81.0587 12.2535C81.0612 12.3079 81.0428 12.3224 80.9893 12.3222C80.4685 12.3206 79.9475 12.3213 79.4267 12.3213C79.2158 12.3213 79.0048 12.3251 78.7939 12.3204C78.1218 12.3056 77.6164 12.0012 77.2749 11.4267C77.0923 11.1199 77.0166 10.783 77.0446 10.4274C77.0748 10.0458 77.2252 9.71252 77.4808 9.42783C77.7686 9.10643 78.1274 8.91596 78.5533 8.85083C78.616 8.84121 78.6796 8.83584 78.7436 8.83584C79.4916 8.83651 80.2393 8.83606 80.9871 8.83629C81.0043 8.83629 81.0225 8.83248 81.05 8.84815Z" fill="#F2F1F1"/>
<path d="M78.8212 6.32719H77.1251C77.041 6.32719 77.041 6.32697 77.0408 6.24236C77.0408 6.14321 77.0435 6.04362 77.0399 5.94447C77.0379 5.89366 77.0582 5.87755 77.1048 5.88158C77.1225 5.88314 77.1401 5.8818 77.1578 5.8818H80.5184C80.6064 5.8818 80.6064 5.88158 80.6066 5.79474C80.6066 5.43842 80.6072 5.08233 80.6055 4.72602C80.6052 4.67522 80.6211 4.645 80.6661 4.62083C80.7785 4.5604 80.8886 4.49616 80.9987 4.43193C81.0365 4.41 81.0475 4.4194 81.0473 4.4608C81.0461 4.62553 81.0468 4.7907 81.0468 4.95543V7.72043C81.0468 7.79899 81.0468 7.79922 80.9692 7.79922C80.8716 7.79922 80.7742 7.79944 80.6766 7.79922C80.6072 7.79899 80.6066 7.79855 80.6066 7.7267C80.6064 7.40956 80.6066 7.09219 80.6066 6.77504V6.41358C80.6064 6.32741 80.6064 6.32719 80.5175 6.32719H78.8212Z" fill="#F2F1F1"/>
<path d="M79.0437 18.1033H80.9685C81.0469 18.1033 81.0469 18.1035 81.0469 18.1816C81.0471 18.2846 81.0458 18.3873 81.0475 18.49C81.0482 18.5288 81.0339 18.546 80.9952 18.5438C80.9793 18.5429 80.9632 18.5438 80.9473 18.5438H77.1406C77.123 18.5438 77.1053 18.5431 77.0876 18.5435C77.0543 18.5444 77.0402 18.5297 77.0406 18.4954C77.0417 18.3801 77.0417 18.2651 77.0406 18.1498C77.0404 18.1158 77.0529 18.1006 77.0874 18.1033C77.1051 18.1044 77.1227 18.1033 77.1404 18.1033H79.0437Z" fill="#F2F1F1"/>
</svg>
