<svg width="355" height="33" viewBox="0 0 355 33" fill="none" xmlns="http://www.w3.org/2000/svg">
<g clip-path="url(#clip0_2144_30899)">
<path fill-rule="evenodd" clip-rule="evenodd" d="M23.2444 23.1136V11.958C23.2444 8.80249 21.5556 7.29138 18.7111 7.29138C16.3556 7.29138 14.3111 8.71361 13.3778 10.0914C12.8 8.31361 11.3778 7.29138 9.11111 7.29138C6.75556 7.29138 4.71111 8.75805 4.04444 9.69138V7.69138H0V23.1136H4.04444V12.7136C4.66667 11.8692 5.82222 10.8914 7.24444 10.8914C8.88889 10.8914 9.55556 11.9136 9.55556 13.3358V23.1136H13.6444V12.6692C14.2222 11.8247 15.4222 10.8914 16.8444 10.8914C18.4889 10.8914 19.1556 11.9136 19.1556 13.3358V23.1136H23.2444ZM34.4444 23.5136C29.3778 23.5136 26.2667 19.7803 26.2667 15.3803C26.2667 10.9803 29.3333 7.29138 34.4444 7.29138C39.5556 7.29138 42.6222 11.0247 42.6222 15.3803C42.6222 19.7803 39.5556 23.5136 34.4444 23.5136ZM34.4444 19.8692C36.9778 19.8692 38.4 17.7803 38.4 15.3358C38.4 12.9358 36.9778 10.8469 34.4444 10.8469C31.9111 10.8469 30.4889 12.9358 30.4889 15.3358C30.4889 17.7803 31.9111 19.8692 34.4444 19.8692ZM60.1333 23.1136V12.1803C60.1333 9.15805 58.4889 7.24694 55.1111 7.24694C52.5778 7.24694 50.7111 8.44694 49.6889 9.64694V7.64694H45.6444V23.1136H49.6889V12.7136C50.3556 11.7803 51.6 10.8914 53.2 10.8914C54.9333 10.8914 56.0444 11.6469 56.0444 13.7803V23.1136H60.1333ZM71.3333 23.5136C66.2667 23.5136 63.1556 19.7803 63.1556 15.3803C63.1556 10.9803 66.2222 7.29138 71.3333 7.29138C76.4444 7.29138 79.5111 11.0247 79.5111 15.3803C79.5111 19.7803 76.4444 23.5136 71.3333 23.5136ZM71.3333 19.8692C73.8667 19.8692 75.2889 17.7803 75.2889 15.3358C75.2889 12.9358 73.8667 10.8469 71.3333 10.8469C68.8 10.8469 67.3778 12.9358 67.3778 15.3358C67.3778 17.7803 68.8 19.8692 71.3333 19.8692ZM86.5778 18.1358C87.2444 19.1136 88.7556 19.8692 90.0444 19.8692C92.4 19.8692 94 18.0914 94 15.3803C94 12.6692 92.4444 10.8469 90.0444 10.8469C88.7111 10.8469 87.2444 11.6025 86.5778 12.6247V18.1358ZM86.5778 23.1136H82.5333V1.78027H86.5778V9.64694C87.7778 8.09138 89.5111 7.29138 91.3333 7.29138C95.2889 7.29138 98.1778 10.3581 98.1778 15.4247C98.1778 20.5803 95.2444 23.5136 91.3333 23.5136C89.4667 23.5136 87.7778 22.6692 86.5778 21.158V23.1136ZM114.622 23.1136H110.578V21.5136C109.511 22.758 107.689 23.5136 105.689 23.5136C103.244 23.5136 100.311 21.8692 100.311 18.4025C100.311 14.8025 103.244 13.4247 105.689 13.4247C107.733 13.4247 109.556 14.0914 110.578 15.2914V13.2025C110.578 11.6469 109.244 10.6247 107.2 10.6247C105.556 10.6247 104 11.2469 102.667 12.4469L101.111 9.73583C102.978 8.09138 105.422 7.29138 107.867 7.29138C111.378 7.29138 114.622 8.71361 114.622 13.158C114.622 13.1136 114.622 23.1136 114.622 23.1136ZM107.289 20.758C108.622 20.758 109.867 20.3136 110.533 19.4247V17.5136C109.867 16.6247 108.578 16.1803 107.289 16.1803C105.689 16.1803 104.356 17.0247 104.356 18.5358C104.4 19.9136 105.689 20.758 107.289 20.758ZM133.156 23.1136V12.1803C133.156 9.15805 131.511 7.24694 128.133 7.24694C125.6 7.24694 123.733 8.44694 122.711 9.64694V7.64694H118.667V23.1136H122.711V12.7136C123.378 11.7803 124.622 10.8914 126.222 10.8914C127.956 10.8914 129.067 11.6469 129.067 13.7803V23.1136H133.156ZM152.267 23.1136L145.956 14.6692L152.089 7.64694H147.111L141.244 14.5358V1.78027H137.2V23.1136H141.244V19.158L143.111 17.158L147.2 23.1136H152.267Z" fill="white"/>
<g opacity="0.6">
<path fill-rule="evenodd" clip-rule="evenodd" d="M343.022 4.66896H346.355V15.2467H346.533L350.844 10.1801H353.911L349.155 15.7356L354.889 22.669H351.067L346.4 16.1801H346.355V22.669H343.022V4.66896ZM184.756 5.5134V15.3801C184.756 18.7578 185.733 20.5801 188.533 20.5801C191.2 20.5801 192.267 18.3578 192.267 15.5578V5.5134H195.422V16.1801C195.422 20.5356 192.578 22.9801 188.444 22.9801C183.689 22.9801 181.244 20.669 181.244 16.0023V5.5134H184.756ZM202.756 11.869C203.867 10.7134 205.467 10.1356 207.022 10.1356C209.955 10.1356 211.467 11.6912 211.467 14.8023V22.669H208.178V15.1134C208.178 13.3801 207.422 12.269 205.689 12.269C204.089 12.269 202.8 13.3356 202.8 15.3356V22.669H199.467V10.4023H202.756V11.869ZM215.378 22.669H218.711V10.4023H215.378V22.669ZM215.067 6.7134C215.067 5.78007 215.867 4.80229 216.978 4.80229C218.133 4.80229 219.022 5.73562 219.022 6.7134C219.022 7.78007 218.267 8.75785 217.022 8.75785C215.867 8.80229 215.067 7.78007 215.067 6.7134ZM226.044 22.669L220.756 10.3134H224.267C225.333 13.1578 226.444 15.7801 227.511 19.2023H227.556C228.667 15.7801 229.733 13.1134 230.889 10.3134H234L228.355 22.669H226.044ZM243.822 15.069C243.955 13.2023 243.289 11.9134 241.644 11.9134C239.733 11.9134 238.889 13.4245 238.933 15.069H243.822ZM238.889 16.8467C238.8 19.1578 240.444 20.8912 242.533 20.8912C243.778 20.8912 245.067 20.4912 245.867 19.9134L246.8 21.6467C245.111 22.6245 243.333 23.0245 241.911 23.0245C238.133 23.0245 235.333 20.4023 235.333 16.3578C235.333 12.5801 238.133 10.1801 241.689 10.1801C245.6 10.1801 247.2 13.2467 246.978 16.8912H238.889V16.8467ZM253.467 12.5801H253.511L254.178 11.6023C254.533 11.069 255.289 10.0912 256.311 10.0912C257.067 10.0912 257.867 10.4912 258.578 11.2023L257.333 13.469C256.8 13.2023 256.444 13.069 255.778 13.069C254.622 13.069 253.511 13.9578 253.511 16.6245V22.669H250.178V10.4023H253.467V12.5801ZM267.422 12.7134C266.667 12.1801 265.911 11.9134 265.289 11.9134C264.533 11.9134 263.778 12.3134 263.778 13.1578C263.778 14.1356 264.978 14.7134 266.355 15.6912C268.133 16.9801 268.667 18.269 268.667 19.3801C268.667 21.1134 266.756 22.9356 264 22.9356C262.267 22.9356 261.022 22.3578 259.822 21.5134L260.889 19.8245C261.644 20.4023 262.711 21.0245 263.6 21.0245C264.533 21.0245 265.378 20.5356 265.378 19.5134C265.378 18.3578 264.089 17.7356 262.889 16.8912C261.467 15.9134 260.489 14.9801 260.489 13.469C260.489 11.5134 262.4 10.0912 264.844 10.0912C266.222 10.0912 267.555 10.4467 268.489 11.2023L267.422 12.7134ZM276.889 16.1356C275.289 16.669 274.444 17.5578 274.444 18.9801C274.444 20.0467 275.156 20.8023 275.956 20.8023C277.289 20.8023 278.978 19.1578 278.756 15.5578L276.889 16.1356ZM277.956 21.5134C277.067 22.269 275.911 22.9801 274.756 22.9801C272.8 22.9801 271.2 21.5134 271.2 19.2467C271.2 16.8912 272.933 15.6023 275.822 14.7578L278.756 13.9134C278.578 12.8023 277.555 12.0912 276.489 12.0912C275.067 12.0912 274.044 12.6245 273.2 13.3356L272.133 11.7801C273.689 10.5356 275.2 10.0912 276.933 10.0912C279.244 10.0912 282.044 10.8023 282.044 14.669V19.6912C282.044 20.669 282.178 21.8245 282.578 22.669H279.067C278.8 22.269 278.756 21.5578 278.756 20.8912L277.956 21.5134ZM285.733 22.669H289.067V4.62451H285.733V22.669ZM318.4 16.1356C316.756 16.669 315.956 17.5578 315.956 18.9801C315.956 20.0467 316.667 20.8023 317.467 20.8023C318.8 20.8023 320.489 19.1578 320.267 15.5578L318.4 16.1356ZM319.467 21.5134C318.578 22.269 317.422 22.9801 316.267 22.9801C314.311 22.9801 312.711 21.5134 312.711 19.2467C312.711 16.8912 314.444 15.6023 317.333 14.7578L320.267 13.9134C320.089 12.8023 319.067 12.0912 318 12.0912C316.578 12.0912 315.6 12.6245 314.711 13.3356L313.644 11.7801C315.2 10.5356 316.711 10.0912 318.444 10.0912C320.756 10.0912 323.555 10.8023 323.555 14.669V19.6912C323.555 20.669 323.689 21.8245 324.089 22.669H320.578C320.311 22.269 320.267 21.5578 320.267 20.8912L319.467 21.5134ZM330.533 11.869C331.644 10.7134 333.244 10.1356 334.8 10.1356C337.733 10.1356 339.244 11.6912 339.244 14.8023V22.669H335.911V15.1134C335.911 13.3801 335.156 12.269 333.422 12.269C331.778 12.269 330.533 13.3356 330.533 15.3356V22.669H327.2V10.4023H330.489V11.869M301.155 20.6245H302.933C304.889 20.6245 306.355 19.6023 306.355 17.6912C306.355 15.6912 304.844 14.8023 302.933 14.8023H301.155V20.6245ZM301.155 12.7134H302.267C304.311 12.7134 305.644 11.4245 305.644 9.82451C305.644 8.3134 304.489 7.64673 302.978 7.64673H301.155V12.7134ZM297.644 22.7134V5.55785H303.956C306.889 5.55785 308.978 6.89118 308.978 9.20229C308.978 11.9578 306.711 13.069 305.467 13.4245V13.469C307.644 13.5578 310.044 15.0245 310.044 17.6467C310.044 20.6245 307.511 22.7134 303.422 22.7134H297.644Z" fill="white"/>
</g>
<path opacity="0.4" fill-rule="evenodd" clip-rule="evenodd" d="M166 0.446777H167.333V32.4468H166V0.446777Z" fill="white"/>
</g>
<defs>
<clipPath id="clip0_2144_30899">
<rect width="354.889" height="32" fill="white" transform="translate(0 0.446777)"/>
</clipPath>
</defs>
</svg>
