<svg width="563" height="229" viewBox="0 0 563 229" fill="none" xmlns="http://www.w3.org/2000/svg">
<g opacity="0.2" clip-path="url(#clip0_2063_3632)">
<path d="M362.618 179.042C362.195 179.302 361.729 179.168 361.285 179.169C356.487 179.18 351.688 179.16 346.89 179.18C340.048 179.209 333.204 179.179 326.365 179.344C322.498 179.437 318.631 179.318 314.769 179.456C307.704 179.709 300.64 179.502 293.576 179.575C291.845 179.593 291.843 179.58 291.843 181.316C291.843 189.072 291.749 196.83 291.884 204.584C291.948 208.243 291.957 211.897 291.825 215.549C291.717 218.551 291.338 221.535 290.911 224.51C290.771 225.49 290.59 226.468 290.524 227.453C290.442 228.666 290.81 229.069 291.972 228.897C293.003 228.744 294.021 228.798 295.042 228.797C317.523 228.787 340.004 228.79 362.485 228.783C363.284 228.783 364.084 228.693 364.884 228.657C366.481 228.585 366.479 228.589 366.484 227.051C366.527 212.786 366.575 198.522 366.61 184.258C366.613 183.099 366.493 181.94 366.493 180.781C366.492 179.573 365.767 179.233 364.75 179.177C364.084 179.139 363.405 179.277 362.751 179.042" stroke="#F2F1F1" stroke-linecap="round" stroke-linejoin="round"/>
<path d="M117.238 228.388C117.238 227.006 117.247 225.624 117.237 224.242C117.196 218.358 117.134 212.474 117.113 206.59C117.106 204.379 116.153 202.288 116.417 200.035C116.614 198.354 116.571 196.646 116.723 194.958C116.811 193.973 117.183 193.122 118.299 192.795C118.78 192.654 119.178 192.25 119.642 192.022C120.157 191.77 120.805 191.681 121.217 192.037C122.242 192.923 123.43 192.66 124.569 192.671C127.725 192.704 130.881 192.683 134.055 192.683C134.106 193.305 134.159 193.662 134.162 194.02C134.212 200.35 134.193 206.681 134.327 213.009C134.388 215.907 134.398 218.804 134.436 221.701C134.449 222.684 135.04 223.057 136.432 223.042C137.467 223.031 137.538 222.199 137.458 221.573C137.333 220.584 137.374 219.606 137.373 218.626C137.361 204.049 137.365 189.473 137.365 174.897C137.365 172.422 137.365 169.948 137.365 167.612C136.153 166.989 135.232 167.523 134.299 167.543C133.564 167.022 133.527 166.399 133.73 165.528C134.104 163.921 133.631 163.556 131.899 163.655C128.258 163.863 124.613 164.019 120.97 164.2C120.304 164.234 119.636 164.273 118.971 164.336C118.096 164.419 117.649 165.022 117.659 165.803C117.69 168.344 117.626 170.883 117.728 173.428C117.839 176.228 117.811 179.04 117.675 181.853C117.548 184.474 117.716 187.111 117.777 189.741C117.803 190.849 118.975 190.944 119.504 191.613" stroke="#F2F1F1" stroke-linecap="round" stroke-linejoin="round"/>
<path d="M401.671 228.522C401.977 220.031 401.697 211.538 401.844 202.98C403.092 202.98 404.383 202.935 405.668 202.996C406.506 203.035 406.765 202.686 406.74 201.91C406.429 192.149 406.757 182.384 406.585 172.624C406.355 159.607 406.627 146.59 406.434 133.576C406.348 127.735 406.41 121.896 406.336 116.057C406.332 115.745 406.313 115.431 406.339 115.121C406.521 112.97 406.661 112.747 408.735 112.737C410.867 112.728 413.004 112.545 415.139 112.946C415.971 113.102 416.204 113.411 416.208 114.185C416.234 118.776 416.387 123.369 416.314 127.958C416.055 144.362 416.229 160.767 416.24 177.17C416.242 180.957 416.208 184.751 416.345 188.537C416.588 195.268 416.377 201.999 416.472 208.73C416.527 212.653 416.657 216.575 416.727 220.498C416.768 222.816 416.633 225.137 416.862 227.452C416.948 228.317 416.63 228.816 415.666 228.795C411.09 228.697 406.513 228.784 401.936 228.717C398.879 228.672 395.806 228.735 392.74 228.783C391.219 228.807 390.985 228.57 391.012 227.051C391.231 214.392 391.109 201.732 391.145 189.072C391.148 188.278 391.178 187.495 390.475 186.932" stroke="#F2F1F1" stroke-linecap="round" stroke-linejoin="round"/>
<path d="M419.531 180.246C418.924 180.747 419.024 181.442 418.992 182.118C418.642 189.607 419.17 197.095 419.002 204.585C418.89 209.577 418.819 214.569 418.733 219.562C418.723 220.111 418.656 220.681 419.002 221.164C419.28 221.551 419.215 222.023 419.105 222.362C418.508 224.206 419.199 226.151 418.622 227.994C418.556 228.206 418.821 228.521 418.988 228.923C490.883 228.923 562.836 228.923 634.788 228.923" stroke="#F2F1F1" stroke-linecap="round" stroke-linejoin="round"/>
<path d="M283.846 210.669C285.001 210.647 286.157 210.644 287.311 210.596C288.177 210.561 288.594 210.848 288.665 211.804C288.917 215.237 288.965 218.672 288.755 222.102C288.645 223.89 288.596 225.691 288.143 227.46C287.897 228.423 287.548 228.869 286.511 228.808C285.182 228.731 283.846 228.808 282.513 228.783C281.667 228.766 281.504 228.157 281.442 227.452C281.203 224.738 281.168 222.018 281.175 219.295C281.181 216.664 281.091 214.033 281.077 211.405C281.01 199.28 281.141 187.154 280.999 175.031C280.945 170.484 281.052 165.938 280.935 161.39C280.572 147.217 280.864 133.04 280.781 118.865C280.779 118.598 280.8 118.329 280.777 118.063C280.668 116.814 280.314 116.456 279.048 116.466C276.337 116.486 273.627 116.547 270.917 116.592" stroke="#F2F1F1" stroke-linecap="round" stroke-linejoin="round"/>
<path d="M112.574 179.444C111.369 179.662 110.17 179.657 108.842 179.405C108.842 166.694 108.842 154.012 108.842 141.331C107.331 141.331 105.951 141.39 104.577 141.321C99.559 141.067 94.5388 140.885 89.5153 140.951C87.8895 140.973 86.3552 141.357 85.3581 142.92C84.9834 143.507 84.9863 144.069 84.9861 144.674C84.9823 155.818 84.9763 166.962 84.9973 178.106C84.9989 178.952 84.8628 179.428 83.9323 179.755C82.543 180.242 81.238 180.977 79.7852 181.316" stroke="#F2F1F1" stroke-linecap="round" stroke-linejoin="round"/>
<path d="M3.81212 228.522C3.85655 227.764 4.0397 226.983 3.9187 226.253C3.5915 224.278 3.8844 222.316 3.9981 220.367C4.08764 218.833 5.2599 217.934 6.74484 217.558C8.76277 217.047 10.8351 217.029 12.8712 217.206C14.0505 217.308 15.1857 217.142 16.341 217.144C26.5596 217.163 36.7782 217.155 46.9968 217.155C52.9502 217.155 58.9037 217.154 64.8571 217.155C66.8244 217.156 67.8546 218.228 67.9316 220.23C68.0276 222.728 68.1886 225.223 68.323 227.719C68.3587 228.383 68.1401 228.816 67.3895 228.791C67.1232 228.782 66.8564 228.789 66.5898 228.789C48.0631 228.789 29.5356 228.684 11.0097 228.813C-19.6463 229.026 -50.302 228.842 -80.9578 228.923" stroke="#F2F1F1" stroke-linecap="round" stroke-linejoin="round"/>
<path d="M285.579 159.919C284.982 159.032 285.315 158.054 285.314 157.111C285.31 147.884 285.299 138.657 285.318 129.429C285.327 125.284 285.418 121.138 285.437 116.993C285.444 115.388 285.32 113.783 285.327 112.179C285.331 111.374 284.997 111.14 284.246 111.096C281.119 110.911 278.024 110.398 274.911 110.082C272.217 109.808 269.507 109.849 266.778 110.261C262.138 110.961 257.455 111.372 252.79 111.912C247.058 112.576 241.328 113.251 235.596 113.916C231.332 114.411 227.066 114.898 222.801 115.388C222.001 115.48 221.223 115.684 220.402 115.679C219.715 115.674 219.393 116.117 219.46 116.86C219.635 118.816 219.711 120.837 219.6 122.735C219.448 125.332 219.462 127.923 219.511 130.498C219.684 139.593 219.442 148.688 219.632 157.779C219.776 164.645 219.682 171.509 219.729 178.374C219.797 188.269 219.826 198.165 219.866 208.061C219.871 209.31 220.001 210.565 219.735 211.806" stroke="#F2F1F1" stroke-linecap="round" stroke-linejoin="round"/>
<path d="M270.784 110.173C270.784 115.299 270.682 120.428 270.806 125.551C271.022 134.422 270.878 143.293 270.904 152.163C270.924 159.028 270.852 165.893 270.767 172.757C270.746 174.452 270.857 176.141 270.831 177.84C270.687 187.199 270.686 196.561 270.661 205.922C270.657 207.273 270.404 208.677 271.184 209.934" stroke="#F2F1F1" stroke-linecap="round" stroke-linejoin="round"/>
<path d="M377.413 172.757C377.413 171.42 377.328 170.076 377.437 168.748C377.541 167.476 376.809 166.4 376.857 165.134C377.086 159.208 377.313 153.282 377.291 147.349C377.285 145.784 378.709 144.455 380.345 144.414C381.721 144.38 383.103 144.348 384.476 144.427C385.44 144.483 385.764 144.109 385.68 143.203C385.576 142.09 385.473 140.976 385.421 139.86C385.396 139.328 385.307 138.775 385.599 138.122C387.095 138.122 388.652 138.131 390.208 138.119C391.149 138.112 391.406 138.71 391.249 139.454C391.106 140.133 391.148 140.797 391.148 141.465C391.139 155.596 391.141 169.726 391.141 183.857C391.141 186.495 390.482 187.1 387.942 186.942C385.98 186.82 384.062 186.329 382.077 186.364C381.311 186.377 380.581 186.579 379.814 186.6C378.826 186.628 378.476 187.582 378.482 188.537C378.511 193.708 378.429 198.878 378.591 204.05C378.736 208.683 378.679 213.322 378.753 217.957C378.803 221.123 378.933 224.287 379.005 227.452C379.024 228.28 379.401 228.812 380.21 228.761C380.905 228.717 381.293 228.265 381.292 227.452C381.291 222.853 380.882 218.271 380.746 213.678C380.739 213.455 380.746 213.232 380.745 213.009C380.7 204.272 380.656 195.536 380.611 186.799" stroke="#F2F1F1" stroke-linecap="round" stroke-linejoin="round"/>
<path d="M423.663 76.3398C423.707 77.1422 423.789 77.9445 423.79 78.7469C423.8 87.1272 423.737 95.5081 423.828 103.887C423.861 106.852 423.888 109.816 423.937 112.732C422.873 113.249 421.862 112.876 420.864 112.835C419.971 112.798 419.433 113.054 419.459 114.051C419.469 114.451 419.402 114.853 419.401 115.255C419.395 118.018 419.429 120.782 419.392 123.546C419.209 137.5 419.831 151.449 419.656 165.402C419.629 167.498 419.554 169.598 419.376 171.686C419.243 173.244 419.945 174.679 419.84 176.237C419.794 176.933 419.909 177.65 419.825 178.377C419.742 179.093 419.614 179.88 420.194 180.517C420.427 180.774 420.468 181.103 420.468 181.45C420.477 186.577 420.894 191.698 420.726 196.828C420.72 197.008 420.642 197.185 420.597 197.363" stroke="#F2F1F1" stroke-linecap="round" stroke-linejoin="round"/>
<path d="M204.008 141.198C203.762 139.957 203.918 138.702 203.874 137.453C203.843 136.585 203.133 135.901 202.411 136.126C199.846 136.924 197.175 137.004 194.542 137.3C189.574 137.858 184.592 138.294 179.617 138.793C175.706 139.184 171.802 139.648 167.886 139.981C162.678 140.424 157.477 140.927 152.291 141.586C150.924 141.76 149.535 141.74 148.162 141.875C146.196 142.069 146.155 142.343 145.884 144.138C145.655 145.655 146.313 147.067 146.296 148.553C145.999 174.183 146.239 199.815 146.162 225.446C146.159 226.471 146.162 227.497 146.162 228.522" stroke="#F2F1F1" stroke-linecap="round" stroke-linejoin="round"/>
<path d="M210.139 140.395C210.139 140.484 210.134 140.651 210.139 140.652C211.739 140.751 211.787 141.672 211.784 143.07C211.721 168.032 211.738 192.994 211.738 217.957C211.738 218.759 211.738 219.562 211.738 220.364" stroke="#F2F1F1" stroke-linecap="round" stroke-linejoin="round"/>
<path d="M210.139 140.796C207.494 141.278 204.819 141.385 201.995 141.32C202.593 144.754 202.401 148.061 202.402 151.361C202.413 172.49 202.448 193.619 202.373 214.748C202.359 218.713 202.321 222.682 202.282 226.649C202.276 227.228 202.364 227.808 202.408 228.388" stroke="#F2F1F1" stroke-linecap="round" stroke-linejoin="round"/>
<path d="M280.78 210.201C277.803 210.191 274.794 209.964 271.856 210.16C266.169 210.539 260.47 210.564 254.788 210.984C252.086 211.184 249.369 211.191 246.659 211.269C240.261 211.453 233.863 211.609 227.466 211.816C225.287 211.886 223.103 212.253 220.938 212.148C219.324 212.069 217.738 212.298 216.136 212.225C214.992 212.174 214.692 212.703 214.925 213.814C215.282 215.508 215.532 217.219 215.969 218.902C216.219 219.868 216.583 220.217 217.602 220.257C223.866 220.504 230.134 220.215 236.395 220.388C240.795 220.509 245.196 220.363 249.59 220.522C254.879 220.714 260.167 220.495 265.451 220.666C267.14 220.721 268.889 220.422 270.502 220.824C272.562 221.339 274.569 222.168 276.49 223.091C277.317 223.488 277.441 224.669 277.555 225.583C277.666 226.469 278.292 227.423 277.805 228.228C277.251 229.146 276.158 228.585 275.314 228.637C269.898 228.97 264.475 228.766 259.054 228.778C244.749 228.81 230.442 228.786 216.136 228.797C215.389 228.797 214.657 228.778 214.007 228.382C213.237 227.913 212.498 228.46 211.737 228.443C210.953 228.425 210.14 228.509 209.339 228.519C205.029 228.57 200.719 228.589 196.41 228.659C180.239 228.923 164.066 228.738 147.894 228.785C139.675 228.809 131.454 228.886 123.236 228.768C108.575 228.558 93.9131 228.723 79.2517 228.657C76.4056 228.644 73.5589 228.641 70.7214 228.923" stroke="#F2F1F1" stroke-linecap="round" stroke-linejoin="round"/>
<path d="M507.1 228.655C507.1 209.844 507.103 191.033 507.088 172.222C507.087 171.414 507.143 170.996 508.156 170.824C509.316 170.627 510.4 170.046 511.625 169.897C512.255 169.821 512.651 169.195 512.595 168.342C512.518 167.143 512.536 165.939 512.788 164.725C512.973 163.835 513.427 163.579 514.164 163.535C516.308 163.41 518.074 164.103 519.528 165.775C520.16 166.503 520.121 167.288 520.288 168.078C520.333 168.291 520.287 168.523 520.297 168.745C520.393 171.039 520.915 171.48 523.227 171.219C524.6 171.065 524.812 171.232 524.822 172.623C524.839 174.986 524.807 177.349 524.839 179.711C524.848 180.397 524.676 180.857 524.034 181.195C522.876 181.805 522.541 182.839 522.546 184.124C522.575 193.128 522.546 202.133 522.567 211.137C522.579 216.397 522.655 221.657 522.688 226.917C522.692 227.496 522.605 228.076 522.561 228.655" stroke="#F2F1F1" stroke-linecap="round" stroke-linejoin="round"/>
<path d="M422.197 215.015C422.792 215.506 422.882 216.166 422.87 216.888C422.847 218.269 422.838 219.652 422.87 221.033C422.905 222.588 423.242 222.905 424.729 222.905C427.75 222.906 430.771 222.906 433.793 222.905C435.651 222.904 435.948 222.487 435.948 220.632C435.946 218.047 435.963 215.464 436.13 212.872C436.372 209.098 436.188 205.298 436.195 201.509C436.196 200.675 435.713 200.41 434.992 200.443C432.326 200.567 429.654 200.63 426.997 200.868C425.251 201.024 423.781 202.801 423.54 204.853C423.231 207.478 423.039 210.118 422.704 212.739C422.601 213.546 422.76 214.644 421.401 214.787C421.078 214.821 420.909 215.382 420.856 215.817C420.748 216.711 420.492 217.601 420.49 218.492C420.488 219.679 420.13 220.645 419.264 221.434" stroke="#F2F1F1" stroke-linecap="round" stroke-linejoin="round"/>
<path d="M468.847 169.146C469.603 169.66 469.308 170.531 469.317 171.153C469.337 172.43 469.959 172.661 470.979 172.626C471.379 172.612 471.779 172.623 472.288 172.623C472.14 175.833 471.999 178.907 471.861 181.893C472.922 182.714 474.011 181.792 474.964 182.246C475.178 182.728 475.109 183.23 475.11 183.723C475.112 189.206 475.092 194.689 475.13 200.171C475.136 201.104 474.492 202.23 475.287 202.931C475.971 203.536 477.016 202.903 477.911 202.961C479.369 203.054 479.376 203.004 479.376 204.451C479.377 212.519 479.376 220.587 479.376 228.655" stroke="#F2F1F1" stroke-linecap="round" stroke-linejoin="round"/>
<path d="M336.894 174.228C336.252 171.672 335.748 169.094 335.407 166.475C334.996 163.317 334.921 160.15 334.911 156.977C334.908 156.156 334.506 155.915 333.828 155.912C330.94 155.902 328.052 155.891 325.165 155.918C324.255 155.926 323.93 156.461 323.95 157.379C324.031 160.944 324.163 164.514 324.053 168.075C323.997 169.911 324.106 171.732 324.103 173.56C324.1 174.813 324.45 175.194 325.697 175.155C329.075 175.049 332.466 175.05 335.823 174.714C338.43 174.452 338.902 174.582 338.887 171.286C338.865 166.249 338.806 161.212 338.759 156.175C338.746 154.794 338.523 154.65 337.161 154.555C334.758 154.387 332.356 154.17 329.966 153.88C328.989 153.761 328.439 153.262 328.459 152.029C328.546 146.503 328.525 140.974 328.471 135.448C328.461 134.465 328.874 134.036 329.698 133.849C330.981 133.557 332.263 133.2 333.565 133.075C334.558 132.979 334.642 132.478 334.635 131.703C334.615 129.341 334.631 126.978 334.626 124.615C334.624 123.622 334.901 123.134 336.093 123.101C338.782 123.028 341.465 122.783 344.194 122.94C344.419 124.425 344.513 125.853 344.491 127.29C344.482 127.841 344.446 128.397 344.758 128.895" stroke="#F2F1F1" stroke-linecap="round" stroke-linejoin="round"/>
<path d="M438.191 90.3815C438.472 86.5954 438.613 82.8077 438.328 79.0144C438.301 78.6598 438.291 78.2976 438.33 77.9455C438.465 76.7548 438.016 76.0635 437.01 76.3975C435.685 76.8377 434.417 76.3104 433.116 76.5534C432.325 76.7011 432.004 76.9613 431.928 77.6775C431.876 78.1671 431.812 78.6573 431.797 79.1485C431.7 82.3577 431.614 85.5673 431.527 88.7768C431.348 95.3803 430.557 101.953 430.56 108.568C430.561 109.72 430.507 110.887 430.457 112.045C430.42 112.902 430.81 113.222 431.659 113.263C434.904 113.421 438.146 113.477 441.39 113.258C441.876 113.225 442.383 113.159 442.854 113.376C443.061 114.172 443.128 114.973 443.127 115.79C443.12 124.527 442.996 133.266 443.156 142C443.334 151.673 443.391 161.345 443.375 171.019C443.374 171.546 443.553 172.002 443.681 172.465C443.567 172.579 443.488 172.733 443.388 172.748C441.099 173.093 441.222 173.061 441.258 175.031C441.297 177.215 441.345 179.399 441.39 181.584" stroke="#F2F1F1" stroke-linecap="round" stroke-linejoin="round"/>
<path d="M201.875 141.599C196.455 142.134 191.033 142.652 185.614 143.207C178.815 143.904 172.02 144.636 165.221 145.341C161.224 145.755 157.224 146.148 153.225 146.545C150.916 146.775 148.605 146.992 146.295 147.215" stroke="#F2F1F1" stroke-linecap="round" stroke-linejoin="round"/>
<path d="M284.779 207.794C284.779 197.096 284.779 186.397 284.779 175.699C284.779 171.42 284.779 167.141 284.779 162.861C284.779 162.594 284.793 162.326 284.777 162.059C284.657 160.087 284.712 160.026 286.645 160.053C287.971 160.071 288.107 160.193 288.109 161.524C288.115 166.383 288.094 171.242 288.116 176.1C288.135 180.068 288.318 184.038 288.216 188.001C288.071 193.619 288.051 199.238 288.166 204.851C288.212 207.071 287.026 207.621 285.046 207.259" stroke="#F2F1F1" stroke-linecap="round" stroke-linejoin="round"/>
<path d="M270.65 116.726C268.74 116.993 266.833 117.29 264.918 117.522C260.7 118.032 256.477 118.501 252.257 119.001C243.637 120.021 235.017 121.039 226.4 122.082C224.226 122.345 222.067 122.732 219.868 122.743" stroke="#F2F1F1" stroke-linecap="round" stroke-linejoin="round"/>
<path d="M348.356 173.827C348.137 173.692 348.231 173.475 348.226 173.292C347.852 159.921 347.976 146.547 347.951 133.174C347.949 132.282 347.941 131.379 347.806 130.502C347.608 129.222 346.761 128.652 345.828 128.911C344.072 129.397 342.291 129.432 340.492 129.438C338.626 129.444 336.76 129.518 334.894 129.563" stroke="#F2F1F1" stroke-linecap="round" stroke-linejoin="round"/>
<path d="M445.255 172.223C446.015 172.899 446.28 173.816 446.305 174.764C446.355 176.684 446.347 178.598 446.562 180.517C446.743 182.134 446.203 182.449 444.719 181.859C444.312 181.697 443.865 181.636 443.389 181.516C443.389 197.363 443.389 213.01 443.389 228.656" stroke="#F2F1F1" stroke-linecap="round" stroke-linejoin="round"/>
<path d="M110.041 182.252C110.041 184.392 110.049 186.531 110.04 188.671C109.998 198.076 109.94 207.482 109.919 216.887C109.915 218.626 110.178 220.362 109.917 222.104C109.818 222.764 110.12 223.175 110.841 223.173C110.974 223.172 111.107 223.17 111.241 223.173C115.128 223.244 114.234 223.111 114.528 220.092C115.004 215.205 115.188 210.29 115.514 205.387C115.561 204.676 115.5 203.899 116.172 203.381" stroke="#F2F1F1" stroke-linecap="round" stroke-linejoin="round"/>
<path d="M531.891 199.58C531.206 200.274 530.284 199.907 529.484 200.076C528.768 200.227 528.569 200.491 528.546 201.184C528.271 209.519 528.506 217.856 528.418 226.191C528.412 226.776 528.59 227.287 528.862 227.93C530.823 227.93 532.833 228.051 534.821 227.894C536.605 227.753 538.385 227.765 540.152 227.852C540.924 227.89 541.663 227.763 542.421 227.776C547.13 227.86 551.84 227.89 556.549 227.927C557.969 227.938 558.316 227.603 558.127 226.194C558.006 225.297 558.026 224.409 558.019 223.517C557.967 217.009 557.978 210.5 557.836 203.994C557.809 202.772 558 201.533 557.736 200.257C555.848 199.952 553.925 200.044 552.018 200.137C549.93 200.24 547.846 200.399 545.753 200.386C544.65 200.38 544.024 200.903 544.035 201.987C544.083 206.89 543.95 211.792 544.121 216.698C544.247 220.303 544.259 223.92 544.02 227.529" stroke="#F2F1F1" stroke-linecap="round" stroke-linejoin="round"/>
<path d="M109.241 127.023C107.959 127.137 106.961 127.982 105.785 128.388C104.606 128.794 103.956 128.712 103.243 127.691C101.203 124.766 97.6762 123.856 94.4462 125.417C93.6047 125.824 92.7431 126.192 91.9203 126.633C91.4872 126.865 91.1212 126.772 90.8633 126.474C90.5656 126.131 90.5951 125.631 90.8606 125.294C91.6976 124.233 93.0065 123.807 94.0706 123.044C96.7429 121.129 99.6619 121.504 102.423 122.788C104.094 123.565 105.752 123.761 107.508 123.674C108.853 123.607 109.545 123.936 109.457 125.147C109.289 127.464 110.555 129.386 110.88 131.563C111.479 135.578 112.899 139.404 112.793 143.607C112.661 148.812 112.913 154.037 112.808 159.25C112.718 163.753 112.684 168.256 112.727 172.757C112.762 176.413 112.999 180.067 113.094 183.723C113.129 185.103 112.981 186.487 112.979 187.869C112.967 196.472 113.004 205.075 112.951 213.678C112.939 215.774 112.826 217.865 112.948 219.965C113.001 220.866 113.203 221.462 114.173 221.568" stroke="#F2F1F1" stroke-linecap="round" stroke-linejoin="round"/>
<path d="M428.195 112.313C427.851 110.886 428.195 109.46 428.189 108.033C428.156 99.2072 428.11 90.3812 428.056 81.5552C428.049 80.3069 427.968 79.0591 427.929 77.8108C427.889 76.4996 427.502 76.0345 426.194 75.955C425.534 75.9149 424.832 75.7764 424.206 76.0913C424.011 76.1893 423.794 76.266 423.671 76.193C421.981 75.193 420.103 75.7374 418.327 75.5858C415.55 75.3486 413.127 76.5671 410.873 78.0872C410.435 78.3831 410.182 78.8039 410.187 79.4157C410.216 83.1152 410.198 86.8151 410.207 90.5149C410.208 90.8271 410.29 91.139 410.334 91.451" stroke="#F2F1F1" stroke-linecap="round" stroke-linejoin="round"/>
<path d="M103.11 127.825C102.563 128.558 101.763 128.262 101.113 128.199C97.7698 127.871 94.4443 128.22 91.1149 128.374C89.9404 128.428 89.743 128.831 89.7749 130.366C89.7955 131.362 90.1462 131.984 91.2476 131.974C92.7136 131.96 94.1828 131.912 95.6453 131.985C97.4981 132.078 99.2852 132.464 100.996 133.268C101.514 133.512 101.817 133.784 102.088 134.336C100.676 135.234 99.1008 134.862 97.6493 134.733C95.2491 134.52 92.8584 134.335 90.4478 134.371C88.1566 134.405 87.4113 135.127 87.383 137.453C87.3781 137.854 87.3823 138.255 87.3823 138.657" stroke="#F2F1F1" stroke-linecap="round" stroke-linejoin="round"/>
<path d="M78.4522 215.817C79.109 215.251 79.2613 214.507 79.2577 213.678C79.2436 210.424 79.2193 207.169 79.2585 203.916C79.3488 196.427 79.5232 188.938 79.5709 181.449C79.6155 174.451 79.6292 167.45 79.4677 160.455C79.4154 158.189 79.7074 155.88 79.1173 153.634C78.7327 152.171 77.8744 151.193 76.3195 150.96C75.0413 150.769 73.5614 151.518 72.8535 152.697C72.3508 153.535 72.7559 154.506 72.4543 155.372" stroke="#F2F1F1" stroke-linecap="round" stroke-linejoin="round"/>
<path d="M443.122 181.851C441.577 181.842 440.026 181.76 438.447 182.284C438.534 186.71 438.489 191.166 438.548 195.625C438.63 201.819 438.415 208.017 438.319 214.213C438.312 214.659 438.235 215.104 438.191 215.55" stroke="#F2F1F1" stroke-linecap="round" stroke-linejoin="round"/>
<path d="M32.6019 204.451C32.6463 203.916 32.732 203.381 32.7288 202.846C32.6945 197.096 32.6508 191.346 32.5996 185.595C32.5788 183.251 32.724 180.948 34.0694 178.91C34.2588 178.623 34.0695 178.234 34.5843 177.915C33.7275 177.776 33.0835 177.727 32.4721 177.559C31.6222 177.325 30.8425 176.917 30.6135 175.964C30.4323 175.21 29.8861 175.002 29.2715 175.053C28.5275 175.113 28.7396 175.773 28.7427 176.234C28.7775 181.539 28.8539 186.843 28.8603 192.148C28.8649 195.981 28.7831 199.815 28.7312 203.648C28.7282 203.872 28.6477 204.094 28.6033 204.317" stroke="#F2F1F1" stroke-linecap="round" stroke-linejoin="round"/>
<path d="M374.214 170.217C373.686 170.425 373.817 170.886 373.816 171.287C373.812 174.808 373.801 178.33 373.82 181.851C373.829 183.564 374.016 183.702 375.68 183.728C378.39 183.77 381.116 183.501 383.806 183.884C385.926 184.186 388.089 184.475 389.942 185.729" stroke="#F2F1F1" stroke-linecap="round" stroke-linejoin="round"/>
<path d="M46.3301 181.316C45.0417 181.182 43.755 181.027 42.4642 180.922C41.5413 180.847 41.0984 181.198 41.111 182.252C41.1807 188.093 40.721 193.926 40.8363 199.771C40.8678 201.372 40.6207 202.98 40.8654 204.584" stroke="#F2F1F1" stroke-linecap="round" stroke-linejoin="round"/>
<path d="M501.502 152.297C501.731 151.658 501.374 151.241 500.971 150.823C499.547 149.347 497.765 148.639 495.77 148.568C491.592 148.419 487.409 148.448 483.241 148.026C480.67 147.766 478.323 148.547 476.197 149.92C475.49 150.376 474.77 151.019 474.711 152.029" stroke="#F2F1F1" stroke-linecap="round" stroke-linejoin="round"/>
<path d="M428.328 63.2347C427.659 62.6614 427.667 61.8788 427.66 61.0951C427.618 56.058 427.568 51.021 427.531 45.9838C427.523 44.7729 427.185 43.5986 427.233 42.3721C427.266 41.5077 426.333 41.0957 424.866 40.8805C423.108 40.6229 421.781 41.576 420.326 42.2297C419.663 42.5278 419.834 43.0719 419.796 43.5767C419.59 46.3369 419.524 49.1086 419.45 51.8693C419.338 56.0261 418.59 60.1394 418.731 64.3045" stroke="#F2F1F1" stroke-linecap="round" stroke-linejoin="round"/>
<path d="M502.568 154.303C502.779 153.181 502.203 152.226 501.237 152.317C498.995 152.53 496.795 152.071 494.571 152.009C489.684 151.872 484.814 151.371 479.903 151.825C478.291 151.974 476.666 152.382 474.968 152.083C473.677 151.854 472.722 153.055 472.709 154.436C472.698 155.516 472.792 156.579 472.96 157.649C473.14 158.795 472.522 159.401 471.381 159.238C470.135 159.06 468.914 158.98 467.667 159.478C468.092 161.696 467.867 163.952 467.844 166.204C467.843 166.338 467.736 166.516 467.79 166.599C469.33 168.969 467.066 170.546 466.8 172.446C465.205 172.364 463.828 172.251 462.449 172.23C458.184 172.164 453.919 172.134 449.654 172.083C449.52 172.081 449.387 171.999 449.254 171.955" stroke="#F2F1F1" stroke-linecap="round" stroke-linejoin="round"/>
<path d="M431.927 90.649C434.1 90.2544 436.277 90.2345 438.457 90.5831C438.548 90.5975 438.635 90.6443 438.724 90.6462C439.488 90.6627 440.455 90.3907 440.938 90.9608C441.438 91.5515 441.111 92.5216 441.116 93.3235C441.133 96.8449 441.034 100.369 441.15 103.887C441.251 106.964 441.224 110.039 441.257 113.115" stroke="#F2F1F1" stroke-linecap="round" stroke-linejoin="round"/>
<path d="M66.5896 194.02C66.286 196.512 66.5378 199.013 66.4623 201.509C66.4596 201.597 66.5746 201.684 66.5853 201.777C66.8729 204.269 66.3924 204.771 63.9243 204.864C60.4571 204.995 56.9933 205.213 53.5274 205.383C52.7714 205.42 52.0053 205.277 51.2617 205.521" stroke="#F2F1F1" stroke-linecap="round" stroke-linejoin="round"/>
<path d="M425.662 41.3032C426.225 46.5743 425.881 51.8273 425.414 57.0847C425.24 59.0356 425.496 61.0066 425.282 62.9693C425.202 63.7128 424.797 64.2295 424.203 64.13C422.627 63.8666 421.176 64.6975 419.668 64.5369C418.416 64.4036 417.639 65.002 416.813 65.6837C417.762 67.3502 419.309 66.9367 420.592 66.7965C422.597 66.5774 424.594 66.6207 426.595 66.5738C427.529 66.552 428.495 66.6263 429.386 66.4088C430.475 66.143 431.062 66.6861 431.66 67.3801" stroke="#F2F1F1" stroke-linecap="round" stroke-linejoin="round"/>
<path d="M424.063 6.80127C423.974 10.9468 423.874 15.0922 423.8 19.238C423.738 22.67 423.699 26.1025 423.673 29.535C423.67 29.9777 423.427 30.5412 424.063 30.8054" stroke="#F2F1F1" stroke-linecap="round" stroke-linejoin="round"/>
<path d="M46.7301 180.781C46.0421 181.36 46.7494 181.939 46.7469 182.519C46.7281 186.979 46.6489 191.436 46.4801 195.893C46.3874 198.341 46.4684 200.795 46.4617 203.247C46.4578 204.65 46.2998 204.727 44.8642 204.73C41.4431 204.737 38.0213 204.872 34.6014 204.831C31.8012 204.798 29.0025 204.595 26.2044 204.444C25.2372 204.392 24.3967 204.531 23.9382 205.52" stroke="#F2F1F1" stroke-linecap="round" stroke-linejoin="round"/>
<path d="M73.787 196.226C73.0514 196.93 73.3548 197.854 73.2434 198.699C72.9912 200.609 73.183 202.54 72.8883 204.456C72.715 205.583 73.1989 205.953 74.3201 205.988C76.2889 206.05 76.2253 206.085 76.3371 207.926C76.67 213.406 76.482 218.896 76.7448 224.374C76.8093 225.72 76.8478 227.05 76.7193 228.388" stroke="#F2F1F1" stroke-linecap="round" stroke-linejoin="round"/>
<path d="M414.333 112.58C414.713 111.733 414.303 110.888 414.316 110.039C414.394 104.691 414.425 99.3413 414.462 93.9921C414.467 93.2777 414.473 92.5678 414.349 91.8497C414.146 90.6693 414.531 90.285 415.665 90.2397C417.044 90.1846 418.425 90.1144 419.795 89.9593C420.387 89.8924 420.766 90.2808 421.211 90.4135C421.46 93.6335 421.408 96.8892 421.391 100.144C421.373 103.531 421.329 106.92 421.249 110.307C421.23 111.111 421.622 111.912 421.264 112.714" stroke="#F2F1F1" stroke-linecap="round" stroke-linejoin="round"/>
<path d="M414.066 91.7182C413.8 91.6736 413.478 91.5096 413.276 91.604C412.006 92.1961 410.689 91.5888 409.396 91.8247C407.951 92.0885 407.536 92.4237 407.535 93.8579C407.535 97.2456 407.507 100.634 407.547 104.021C407.567 105.716 407.737 107.408 407.788 109.103C407.806 109.68 407.837 110.366 407.561 110.816C407.178 111.44 407.28 111.978 407.402 112.58" stroke="#F2F1F1" stroke-linecap="round" stroke-linejoin="round"/>
<path d="M66.1899 193.619C63.9241 193.715 61.6688 193.311 59.3895 193.595C56.9744 193.897 54.9831 195.17 52.8628 196.163C52.5355 196.316 52.4862 196.611 52.45 196.961C52.1694 199.675 52.0384 202.392 52.1949 205.119" stroke="#F2F1F1" stroke-linecap="round" stroke-linejoin="round"/>
<path d="M424.063 41.437C423.569 42.403 423.425 43.4222 423.373 44.5116C423.111 49.9925 423.527 55.4927 422.88 60.9633C422.771 61.8919 422.769 62.8594 423.13 63.7695" stroke="#F2F1F1" stroke-linecap="round" stroke-linejoin="round"/>
<path d="M467.647 165.135C462.182 165.091 456.718 165.043 451.253 165.003C449.884 164.993 448.551 165.2 447.25 165.658C446.559 165.902 446.361 166.345 446.455 167.007" stroke="#F2F1F1" stroke-linecap="round" stroke-linejoin="round"/>
<path d="M489.506 157.111C489.664 154.423 489.673 154.291 492.303 154.473C495.102 154.666 497.913 154.392 500.716 154.892C501.62 155.054 502.701 154.346 503.767 154.44C504.149 154.473 504.527 154.54 504.963 154.6C505.026 156.447 504.313 158.235 504.678 160.12C505.767 160.189 506.757 160.256 507.769 160.07C508.513 159.934 509.03 160.146 508.982 161.124C508.857 163.662 509.148 166.212 508.817 168.743C508.733 169.382 509.181 169.729 509.366 170.216" stroke="#F2F1F1" stroke-linecap="round" stroke-linejoin="round"/>
<path d="M67.5227 172.757C66.4986 173.05 66.3181 173.973 66.3536 174.762C66.5979 180.201 66.3825 185.64 66.4471 191.078C66.4577 191.968 66.3454 192.86 66.2832 193.858C69.1654 193.608 71.6074 194.211 73.5206 196.293" stroke="#F2F1F1" stroke-linecap="round" stroke-linejoin="round"/>
<path d="M434.059 70.8569C434.233 69.509 433.978 69.1833 432.726 69.1173C428.33 68.8852 423.93 68.8875 419.531 69.005C418.351 69.0365 417.095 69.0859 416.446 70.4466C416.221 70.9196 416.078 71.3173 416.483 71.8864C421.734 71.0501 427.18 71.6397 432.591 71.2362C433.739 71.1506 434.858 70.889 435.925 71.5256" stroke="#F2F1F1" stroke-linecap="round" stroke-linejoin="round"/>
<path d="M467.647 166.472C465.949 167.059 464.175 166.744 462.447 166.823C458.856 166.989 455.251 166.846 451.653 166.885C450.008 166.903 448.364 167.032 446.722 167.148C445.766 167.216 445.413 167.841 445.383 168.745C445.343 169.907 445.586 171.092 445.079 172.234C444.678 172.314 444.234 172.402 443.789 172.49" stroke="#F2F1F1" stroke-linecap="round" stroke-linejoin="round"/>
<path d="M181.216 117.528C180.433 116.083 179.327 114.905 178.151 113.782C177.233 112.906 176.572 112.904 175.477 113.639C174.455 114.325 173.615 115.225 172.988 116.214C171.735 118.194 170.126 119.897 168.892 121.903C167.95 123.435 167.629 124.765 168.42 126.354" stroke="#F2F1F1" stroke-linecap="round" stroke-linejoin="round"/>
<path d="M554.283 199.713C554.239 198.108 554.138 196.503 554.167 194.899C554.191 193.541 553.03 193.442 552.265 193.066C551.139 192.513 549.876 192.249 548.687 191.818C545.625 190.71 542.482 190.87 539.359 191.319C537.381 191.602 535.443 192.17 533.491 192.629C532.379 192.89 531.789 193.529 531.877 194.766C531.981 196.233 532.003 197.707 532.01 199.178C532.012 199.605 532.262 199.399 532.424 199.446" stroke="#F2F1F1" stroke-linecap="round" stroke-linejoin="round"/>
<path d="M420.197 197.363C420.592 197.324 420.745 197.492 420.736 197.898C420.66 201.241 420.627 204.585 420.518 207.927C420.46 209.714 420.429 211.494 420.591 213.277C420.644 213.859 421.065 214.247 421.264 214.748" stroke="#F2F1F1" stroke-linecap="round" stroke-linejoin="round"/>
<path d="M100.711 82.2236C100.622 85.2102 100.365 88.2043 100.497 91.181C100.605 93.5998 100.276 96.0008 100.464 98.4031C100.542 99.3988 101.185 100.24 101.161 101.348C101.118 103.394 101.371 105.448 101.513 107.498C101.591 108.619 102.032 109.751 101.377 110.841" stroke="#F2F1F1" stroke-linecap="round" stroke-linejoin="round"/>
<path d="M116.039 173.56C116.083 177.794 116.051 182.032 116.22 186.262C116.269 187.496 115.976 188.839 116.705 190.008" stroke="#F2F1F1" stroke-linecap="round" stroke-linejoin="round"/>
<path d="M106.442 118.999C106.353 118.687 106.352 118.18 106.162 118.094C104.519 117.346 103.541 115.783 102.062 114.825C100.965 114.114 99.9077 113.731 98.7176 114.331C96.4718 115.462 94.2043 116.618 93.0052 119.012C92.7152 119.591 92.4749 120.309 92.847 121.005" stroke="#F2F1F1" stroke-linecap="round" stroke-linejoin="round"/>
<path d="M77.1193 157.513C76.8972 157.424 76.6771 157.263 76.4526 157.256C74.2317 157.193 72.0092 157.18 69.7891 157.098C69.0525 157.071 68.8252 157.266 68.8345 158.048C68.8807 161.925 68.8556 165.804 68.8556 169.682C68.8556 169.816 68.8194 169.962 68.8612 170.081C69.275 171.26 68.7948 172.052 67.7893 172.624" stroke="#F2F1F1" stroke-linecap="round" stroke-linejoin="round"/>
<path d="M107.775 121.138C105.403 121.892 103.836 120.276 102.198 119.103C100.427 117.834 98.4726 117.662 96.752 118.542C94.7804 119.55 92.7572 120.75 91.7603 123.001C91.5488 123.479 91.4664 123.879 91.6476 124.348" stroke="#F2F1F1" stroke-linecap="round" stroke-linejoin="round"/>
<path d="M338.36 174.495C339.031 175.062 339.852 175.161 340.62 174.942C342.722 174.342 344.886 174.437 347.023 174.223C349.864 173.94 352.71 174.149 355.554 174.102C357.952 174.063 360.352 174.094 362.751 174.094C362.751 175.61 362.751 177.259 362.751 178.908" stroke="#F2F1F1" stroke-linecap="round" stroke-linejoin="round"/>
<path d="M176.151 118.33C176.023 120.2 176.301 122.076 176.026 123.948C175.696 126.188 174.932 126.708 172.684 126.228C170.684 125.801 168.817 126.145 167.078 127.275C166.389 127.722 166.225 128.286 166.285 129.029C166.572 132.591 166.354 136.161 166.421 139.726" stroke="#F2F1F1" stroke-linecap="round" stroke-linejoin="round"/>
<path d="M420.197 75.939C419.927 80.2605 420.127 84.5869 420.059 88.9104C420.054 89.2231 419.975 89.5346 419.931 89.8466" stroke="#F2F1F1" stroke-linecap="round" stroke-linejoin="round"/>
<path d="M184.681 125.15C184.726 125.195 184.762 125.261 184.816 125.281C186.674 125.962 186.39 127.556 186.418 129.028C186.444 130.455 186.524 131.881 186.542 133.308C186.564 135.052 186.552 135.09 184.813 135.303C183.17 135.504 181.514 135.679 179.869 135.279C179.931 132.593 179.794 130.004 180.131 127.421C180.293 126.177 180.917 125.408 182.149 125.282C182.905 125.205 183.659 125.106 184.415 125.017" stroke="#F2F1F1" stroke-linecap="round" stroke-linejoin="round"/>
<path d="M436.058 76.8745C435.97 81.2875 435.881 85.7005 435.792 90.1135" stroke="#F2F1F1" stroke-linecap="round" stroke-linejoin="round"/>
<path d="M213.604 227.987C213.995 225.838 213.674 223.695 213.426 221.573C213.317 220.633 212.32 220.431 211.473 220.51C207.694 220.862 203.919 220.669 200.142 220.511C199.168 220.47 198.173 220.499 197.214 220.654C195.991 220.851 195.366 221.762 195.082 222.906C194.632 224.713 194.86 226.558 194.811 228.388" stroke="#F2F1F1" stroke-linecap="round" stroke-linejoin="round"/>
<path d="M46.1968 177.304C45.8822 177.353 45.6572 177.293 45.6621 176.903C45.6754 175.86 44.9985 175.782 44.1971 175.825C43.6976 175.851 43.2261 175.809 42.7213 175.589C40.4957 174.619 38.1917 175.039 35.9397 175.463C34.7201 175.693 33.5637 175.846 32.3278 175.602C31.8458 175.507 31.234 175.236 30.7356 175.699" stroke="#F2F1F1" stroke-linecap="round" stroke-linejoin="round"/>
<path d="M61.6582 207.527C60.3387 207.817 59.0203 207.922 57.658 207.815C55.3062 207.63 52.9495 207.825 50.5952 207.921C49.3516 207.972 48.1045 207.835 46.862 208.053C45.9624 208.211 45.517 207.775 45.529 206.858C45.5373 206.234 45.5306 205.61 45.5306 204.986" stroke="#F2F1F1" stroke-linecap="round" stroke-linejoin="round"/>
<path d="M176.817 90.1138C176.673 92.0282 176.559 93.9381 176.664 95.8651C176.759 97.5984 176.684 99.341 176.684 101.079" stroke="#F2F1F1" stroke-linecap="round" stroke-linejoin="round"/>
<path d="M500.569 155.506C500.194 156.314 499.419 156.313 498.703 156.444C495.75 156.987 492.765 157.214 489.773 157.379" stroke="#F2F1F1" stroke-linecap="round" stroke-linejoin="round"/>
<path d="M100.311 98.8062C99.9021 99.0456 99.7023 99.4531 99.6567 99.8773C99.4511 101.791 99.2467 103.707 99.1306 105.627C99.0779 106.498 98.9259 107.334 98.7084 108.166C98.4706 109.076 98.5102 109.965 98.8448 110.842" stroke="#F2F1F1" stroke-linecap="round" stroke-linejoin="round"/>
<path d="M172.019 114.051C171.633 113.614 171.243 113.231 171.74 112.57C172.585 111.445 173.392 110.287 174.139 109.094C174.716 108.173 175.627 107.867 176.555 107.651C177.876 107.344 178.511 107.739 179.085 108.968C179.921 110.755 180.806 112.52 181.597 114.326C181.888 114.989 182.05 115.735 182.133 116.459C182.338 118.241 181.524 118.906 179.75 118.46C178.563 118.162 177.406 117.983 176.146 118.157C174.447 118.393 174.046 118.624 174.023 120.202C174.002 121.584 174.042 122.966 174.007 124.347C173.992 124.938 174.221 125.433 174.418 125.952" stroke="#F2F1F1" stroke-linecap="round" stroke-linejoin="round"/>
<path d="M270.784 210.468C270.784 213.009 270.773 215.55 270.79 218.091C270.796 218.938 270.873 219.785 270.917 220.632" stroke="#F2F1F1" stroke-linecap="round" stroke-linejoin="round"/>
<path d="M50.0622 208.195C49.8449 209.974 49.3639 211.707 49.4841 213.547C49.5543 214.623 49.8776 215.383 50.7319 215.947C51.0966 216.187 51.4346 216.427 51.5284 216.888" stroke="#F2F1F1" stroke-linecap="round" stroke-linejoin="round"/>
<path d="M180.816 113.248C180.081 113.436 179.587 112.91 179.095 112.563C176.289 110.586 175.884 111.15 173.465 112.953C171.719 114.254 170.856 116.055 170.02 117.929" stroke="#F2F1F1" stroke-linecap="round" stroke-linejoin="round"/>
<path d="M414.999 68.1826C414.724 68.8451 414.207 69.2065 413.534 69.3879C412.444 69.6815 411.929 70.3419 412.056 71.527C412.251 73.3469 411.748 75.2053 412.333 77.0086" stroke="#F2F1F1" stroke-linecap="round" stroke-linejoin="round"/>
<path d="M283.579 219.963C283.748 222.336 283.293 224.684 283.315 227.051C283.32 227.499 283.232 227.959 283.446 228.388" stroke="#F2F1F1" stroke-linecap="round" stroke-linejoin="round"/>
<path d="M182.815 125.551C183.35 127.582 182.971 129.653 183.079 131.703C183.139 132.861 183.17 134.021 183.215 135.18" stroke="#F2F1F1" stroke-linecap="round" stroke-linejoin="round"/>
<path d="M18.4734 205.654C19.679 205.772 20.8754 205.671 22.0725 205.523C23.4794 205.349 24.4038 205.72 24.4713 206.456C24.5404 207.211 23.5664 207.786 22.2054 207.793C21.8055 207.795 21.4053 207.782 21.0059 207.796C19.5369 207.848 19.1248 208.196 19.1398 205.921" stroke="#F2F1F1" stroke-linecap="round" stroke-linejoin="round"/>
<path d="M93.6467 115.522C95.1331 114.661 96.0426 113.2 97.234 112.033C98.5403 110.754 101.223 110.535 102.714 111.638C104.353 112.849 105.357 114.503 106.196 116.314C106.49 116.948 106.042 117.39 106.042 117.929" stroke="#F2F1F1" stroke-linecap="round" stroke-linejoin="round"/>
<path d="M443.389 172.891C443.372 175.521 443.695 178.151 443.398 180.782C443.374 180.997 443.478 181.227 443.522 181.45" stroke="#F2F1F1" stroke-linecap="round" stroke-linejoin="round"/>
<path d="M18.2068 208.462C18.1179 210.557 18.029 212.653 17.9402 214.748" stroke="#F2F1F1" stroke-linecap="round" stroke-linejoin="round"/>
<path d="M423.53 31.0063C423.211 31.2921 423.032 31.646 422.996 32.0761C422.865 33.6364 422.73 35.1965 422.597 36.7566" stroke="#F2F1F1" stroke-linecap="round" stroke-linejoin="round"/>
<path d="M424.063 31.0063C424.25 31.1969 424.451 31.3673 424.466 31.6748C424.548 33.369 424.64 35.0627 424.729 36.7566" stroke="#F2F1F1" stroke-linecap="round" stroke-linejoin="round"/>
<path d="M126.968 190.409C125.636 190.588 124.306 190.806 122.968 190.927C122.333 190.984 121.793 191.123 121.37 191.613" stroke="#F2F1F1" stroke-linecap="round" stroke-linejoin="round"/>
<path d="M426.062 37.2914C425.256 37.2634 424.479 37.012 423.672 36.9334C422.337 36.8036 421.606 37.3745 420.863 38.2268C420.115 39.0854 420.403 40.0076 421.533 40.2177C421.98 40.3008 422.453 40.2423 422.863 40.5008" stroke="#F2F1F1" stroke-linecap="round" stroke-linejoin="round"/>
<path d="M436.192 71.6592C436.281 73.2193 436.369 74.7795 436.458 76.3396" stroke="#F2F1F1" stroke-linecap="round" stroke-linejoin="round"/>
<path d="M201.875 136.651C202.152 137.666 201.97 138.702 201.998 139.727C202.013 140.282 202.038 140.821 202.275 141.331" stroke="#F2F1F1" stroke-linecap="round" stroke-linejoin="round"/>
<path d="M414.333 71.3921C414.511 72.9037 413.845 74.4403 414.466 75.9388" stroke="#F2F1F1" stroke-linecap="round" stroke-linejoin="round"/>
<path d="M176.95 101.347C177.879 102.021 177.742 103.096 177.855 104.025C177.994 105.17 178.381 106.323 178.017 107.498" stroke="#F2F1F1" stroke-linecap="round" stroke-linejoin="round"/>
<path d="M176.951 101.146C176.054 101.415 175.876 102.171 175.757 102.952C175.718 103.214 175.786 103.492 175.746 103.753C175.422 105.865 175.491 105.932 177.75 105.626" stroke="#F2F1F1" stroke-linecap="round" stroke-linejoin="round"/>
<path d="M376.346 166.874C375.702 167.558 375.992 168.496 375.7 169.288C375.37 170.182 375.259 170.276 374.347 169.816" stroke="#F2F1F1" stroke-linecap="round" stroke-linejoin="round"/>
<path d="M110.974 133.977C109.302 132.757 107.755 133.792 106.176 134.244" stroke="#F2F1F1" stroke-linecap="round" stroke-linejoin="round"/>
<path d="M182.015 118.464C182.361 118.736 182.513 119.095 182.554 119.533C182.688 120.981 183.392 122.06 184.681 122.743" stroke="#F2F1F1" stroke-linecap="round" stroke-linejoin="round"/>
<path d="M175.617 105.492C174.917 105.987 174.361 106.539 174.818 107.498" stroke="#F2F1F1" stroke-linecap="round" stroke-linejoin="round"/>
<path d="M428.728 63.6357C428.913 64.2506 428.164 64.6312 428.328 65.2405" stroke="#F2F1F1" stroke-linecap="round" stroke-linejoin="round"/>
<path d="M185.081 122.476C183.973 123.127 184.61 124.146 184.548 125.017" stroke="#F2F1F1" stroke-linecap="round" stroke-linejoin="round"/>
<path d="M295.175 128.36C292.846 129.091 292.813 129.244 292.798 131.837C292.768 137.186 292.903 142.535 292.9 147.884C292.895 154.793 292.881 161.704 292.744 168.611C292.694 171.109 292.695 173.604 292.628 176.271C302.154 175.884 311.607 175.948 321.195 175.265C320.922 162.817 321.075 150.469 321.024 137.921C313.082 137.921 305.194 137.921 297.174 137.921C297.174 135.583 297.174 133.443 297.174 131.302C297.174 130.945 297.176 130.589 297.174 130.232C297.162 128.433 297.463 128.291 295.308 128.36" stroke="#F2F1F1" stroke-linecap="round" stroke-linejoin="round"/>
</g>
<defs>
<clipPath id="clip0_2063_3632">
<rect width="563" height="228" fill="white" transform="translate(0 0.446777)"/>
</clipPath>
</defs>
</svg>
