<svg width="22" height="18" viewBox="0 0 22 18" fill="none" xmlns="http://www.w3.org/2000/svg">
<path fill-rule="evenodd" clip-rule="evenodd" d="M1.49314 7.74887C7.32354 5.20866 11.2114 3.534 13.1567 2.72488C18.7109 0.414696 19.865 0.0133926 20.6173 0.000141288C20.7827 -0.00277319 21.1526 0.0382296 21.3923 0.232668C21.5946 0.396848 21.6503 0.618631 21.6769 0.774292C21.7035 0.929953 21.7367 1.28455 21.7103 1.56162C21.4094 4.72409 20.107 12.3986 19.4444 15.9406C19.1641 17.4394 18.6121 17.9419 18.0776 17.9911C16.9162 18.0979 16.0342 17.2235 14.9093 16.4861C13.1491 15.3322 12.1546 14.6139 10.446 13.488C8.47138 12.1867 9.75145 11.4715 10.8768 10.3027C11.1713 9.99684 16.2886 5.34225 16.3877 4.92001C16.4 4.8672 16.4115 4.67035 16.2946 4.56641C16.1776 4.46247 16.0051 4.49801 15.8805 4.52628C15.704 4.56635 12.8919 6.425 7.44438 10.1022C6.6462 10.6503 5.92322 10.9174 5.27546 10.9034C4.56136 10.888 3.18771 10.4996 2.16654 10.1677C0.914043 9.76054 -0.0814207 9.54529 0.00526187 8.85384C0.0504115 8.49369 0.54637 8.12537 1.49314 7.74887Z" fill="#242323"/>
</svg>
